<svg width="32" height="32" viewBox="0 0 32 32" fill="none" xmlns="http://www.w3.org/2000/svg">
<path d="M11.7441 0.431824V4.27003C9.16381 4.67499 4.11175 6.96299 3.69129 14.5747H17.7778V18.5692H10.8165H3.85524C5.00591 25.2462 11.0466 27.6505 14.2222 28.1294V21.0523H17.7778V31.908C12.9293 32.6637 0 28.8851 0 16.0378C0 5.75988 7.82941 1.35136 11.7441 0.431824Z" fill="#02879f"></path>
<path d="M14.2222 12.567H17.8855V3.93011C22.6263 3.93011 28.5615 9.43611 28.4444 16.2376C28.3274 23.0392 23.0572 26.6019 20.3636 27.6815V31.5681C29.8451 28.3292 32 20.9879 32 16.2376C32 2.74255 19.9327 -0.42431 14.2222 0.0435196V12.567Z" fill="#364464"></path>
</svg>