<svg width="32" height="32" viewBox="0 0 32 32" fill="none" xmlns="http://www.w3.org/2000/svg">
<path d="M11.7441 0.643402V4.45588C9.05051 4.87579 3.6633 7.80143 3.6633 16.1447C3.6633 24.488 10.7026 27.6282 14.2222 28.1553V18.8257H10.6667V15.0724H17.7778V31.9086C12.9293 32.6593 0 28.906 0 16.1447C0 5.93575 7.82941 1.55677 11.7441 0.643402Z" fill="#F03A3A"></path>
<path d="M14.2222 12.4827H17.8855V3.90376C22.6263 3.90376 28.5615 9.37285 28.4445 16.1288C28.3274 22.8847 23.0572 26.4236 20.3636 27.4959V31.3565C29.8451 28.1394 32 20.8472 32 16.1288C32 2.72415 19.9327 -0.421482 14.2222 0.0432127V12.4827Z" fill="#364464"></path>
</svg>